<?xml version="1.0" encoding="UTF-8" standalone="no"?>
<!-- Created with Inkscape (http://www.inkscape.org/) -->

<svg
   width="300"
   height="300"
   viewBox="0 0 79.374998 79.375"
   version="1.1"
   id="svg1"
   xml:space="preserve"
   sodipodi:docname="ULMY.AI Logo_final2025 9 oct .svg"
   inkscape:version="1.4 (e7c3feb1, 2024-10-09)"
   inkscape:export-filename="Branding/ULMY AI Logo Final 31 oct 2025 HD.png"
   inkscape:export-xdpi="345.60001"
   inkscape:export-ydpi="345.60001"
   xmlns:inkscape="http://www.inkscape.org/namespaces/inkscape"
   xmlns:sodipodi="http://sodipodi.sourceforge.net/DTD/sodipodi-0.dtd"
   xmlns="http://www.w3.org/2000/svg"
   xmlns:svg="http://www.w3.org/2000/svg"><sodipodi:namedview
     id="namedview1"
     pagecolor="#ffffff"
     bordercolor="#000000"
     borderopacity="0.25"
     inkscape:showpageshadow="2"
     inkscape:pageopacity="0.0"
     inkscape:pagecheckerboard="0"
     inkscape:deskcolor="#d1d1d1"
     inkscape:zoom="2.8284271"
     inkscape:cx="138.41615"
     inkscape:cy="146.19433"
     inkscape:window-width="2048"
     inkscape:window-height="1038"
     inkscape:window-x="2222"
     inkscape:window-y="49"
     inkscape:window-maximized="0"
     inkscape:current-layer="g42"
     inkscape:export-bgcolor="#ffffffff" /><defs
     id="defs1"><inkscape:path-effect
       effect="fillet_chamfer"
       id="path-effect8"
       is_visible="true"
       lpeversion="1"
       nodesatellites_param="F,0,0,1,0,0,0,1 @ F,0,0,1,0,0,0,1 @ F,0,0,1,0,0,0,1 @ F,0,0,1,0,0,0,1 @ F,0,0,1,0,0,0,1 @ F,0,0,1,0,0,0,1 @ F,0,0,1,0,0,0,1 @ F,0,0,1,0,0,0,1 @ F,0,0,1,0,0,0,1 @ F,0,0,1,0,0,0,1 @ F,0,0,1,0,0,0,1 @ F,0,0,1,0,0,0,1"
       radius="0"
       unit="px"
       method="auto"
       mode="F"
       chamfer_steps="1"
       flexible="false"
       use_knot_distance="true"
       apply_no_radius="true"
       apply_with_radius="true"
       only_selected="false"
       hide_knots="false" /><inkscape:path-effect
       effect="fillet_chamfer"
       id="path-effect7"
       is_visible="true"
       lpeversion="1"
       nodesatellites_param="F,0,0,1,0,0,0,1 @ F,0,0,1,0,0,0,1 @ F,0,0,1,0,0,0,1 @ F,0,0,1,0,0,0,1 @ F,0,0,1,0,0,0,1 @ F,0,0,1,0,0,0,1 @ F,0,0,1,0,0,0,1 @ F,0,0,1,0,1.2256241,0,1 @ F,0,0,1,0,0,0,1 @ F,0,0,1,0,0,0,1"
       radius="0"
       unit="px"
       method="auto"
       mode="F"
       chamfer_steps="1"
       flexible="false"
       use_knot_distance="true"
       apply_no_radius="true"
       apply_with_radius="true"
       only_selected="false"
       hide_knots="false" /></defs><g
     id="layer1"
     style="display:inline"
     inkscape:label="logo"
     transform="translate(-0.32564103,2.6051282)"><g
       id="g1"
       style="display:inline;opacity:1"
       transform="matrix(1.07254,0,0,1.07254,-15.976377,-7.8904824)"
       inkscape:label="Central lobe"><g
         id="g55"
         style="display:inline;stroke:#039463;stroke-width:0.197351;stroke-dasharray:none;stroke-opacity:1"><path
           d="m 54.877278,44.340716 c 0.106991,-0.003 0.215148,-7.56e-4 0.324743,0.0077 0.679655,-0.02253 1.357106,0.07917 2.018317,0.228862 1.339597,0.454428 2.765838,0.329378 4.11806,0.04047 0.785865,1.198925 -1.904807,1.153618 -2.746819,1.086008 -1.667067,-0.288437 -3.423913,-0.754279 -5.084096,-0.145508 -1.287014,0.586385 -2.760959,1.247097 -4.159015,0.575768 -1.170625,-0.698059 0.39464,-1.09143 1.003618,-0.547341 1.590251,0.04613 2.920331,-1.201403 4.525192,-1.24597 z"
           style="display:inline;fill:#039463;stroke:#039463;stroke-width:0.197351;stroke-dasharray:none;stroke-opacity:1"
           id="path51" /><path
           d="m 64.422005,37.967287 c -0.749196,1.077105 -1.282028,2.774115 -2.803191,3.218996 -1.723222,0.470092 -3.745629,-0.45673 -5.258995,0.753075 -0.931333,1.435754 1.111097,0.330064 1.75621,0.198507 1.549316,0.1377 3.131804,-0.05889 4.667328,0.05637 1.390829,0.800273 3.248836,1.260287 4.630229,0.182607 0.821624,-0.195651 1.428029,-2.27925 0.201879,-1.350041 -0.976702,1.38503 -3.018697,1.388938 -4.259713,0.386414 0.34487,-0.997433 1.730657,-2.116963 1.271987,-3.351495 z"
           style="display:inline;fill:#039463;stroke:#039463;stroke-width:0.197351;stroke-dasharray:none;stroke-opacity:1"
           id="path53" /><path
           d="m 61.626523,35.702281 c -0.796843,1.181897 -1.783159,2.770313 -3.50953,2.488085 -2.08658,-0.306265 -4.647999,-0.139841 -5.952325,1.770665 -0.567013,1.287259 -1.810956,2.127539 -3.238751,1.974954 -1.870389,0.0076 -4.189243,0.297323 -5.092287,2.198515 -0.880284,1.54834 0.157207,3.751419 1.973026,3.905581 1.494804,0.145989 0.572055,-1.101651 -0.38256,-0.963145 -1.496136,-0.612107 -1.251681,-2.694324 -0.04288,-3.461831 1.751575,-1.153422 4.026272,-0.39614 5.894025,-1.24886 0.570139,-0.179908 2.762386,0.27115 1.644912,-0.758375 -1.526544,-0.490612 0.932261,-2.163424 1.763919,-2.408586 1.962313,-0.741261 4.340356,0.493168 6.093015,-0.967 0.56112,-0.417374 2.015854,-2.094619 0.849437,-2.530003 z"
           style="display:inline;fill:#039463;stroke:#039463;stroke-width:0.197351;stroke-dasharray:none;stroke-opacity:1"
           id="path47" /></g><path
         style="display:inline;opacity:1;fill:#0dab77;fill-opacity:1"
         d="m 45.649692,51.261281 c -0.499639,-0.01349 -0.903045,-0.149809 -1.343358,-0.25892 -0.394324,-0.06625 -0.566068,-0.272872 -1.068759,-0.324797 -0.05013,-0.189793 -0.359151,-0.20261 -0.509766,-0.325154 -0.258582,-0.141134 -0.817532,-0.360136 -1.091053,-0.641686 -0.230042,-0.08789 -0.491002,-0.251119 -0.69247,-0.445765 -0.675107,-0.363335 -1.14916,-0.987437 -1.667328,-1.622231 -0.0318,-0.288172 -0.31691,-0.59395 -0.279966,-1.067539 -0.199542,-0.72884 0.05079,-1.533656 0.227716,-2.106864 0.260273,-0.581617 0.455829,-0.997133 0.736812,-1.349536 0.203067,-0.254682 0.393801,-0.495642 0.64872,-0.755897 0.649114,-0.662702 1.303406,-1.500804 2.032101,-1.96518 0.200532,-0.260843 0.490077,-0.392676 0.71555,-0.519529 0.39908,-0.334997 0.73959,-0.525976 1.283109,-0.797086 0.456917,-0.308073 0.911893,-0.524498 1.541168,-0.766521 0.191229,-0.192202 0.658543,-0.352198 1.044563,-0.438233 0.685325,-0.323822 1.440286,-0.422234 2.188064,-0.514444 0.53726,-0.191405 0.944252,-0.08427 1.551293,-0.306189 0.405191,-0.045 1.071821,-0.22544 1.427482,-0.354764 0.302379,-0.142687 0.90355,-0.376089 1.392726,-0.646603 0.501741,-0.336035 1.344106,-0.890215 1.995237,-1.254342 0.473418,-0.375437 0.88523,-0.50041 1.289122,-0.681516 0.403892,-0.181106 0.739741,-0.294906 1.122241,-0.418234 0.689134,-0.187712 1.580067,-0.352212 2.397734,-0.28311 0.290946,0.02459 1.160892,0.136014 1.758483,0.285399 1.244423,0.311079 1.817806,1.528509 2.440889,2.491957 0.422341,0.65305 1.158678,1.255848 1.777758,1.658889 0.268083,0.17453 0.877723,0.448655 1.071816,0.570594 0.478071,0.300348 0.863926,0.390902 1.459435,0.765674 0.861546,0.542197 1.518787,1.281646 2.044329,2.174112 0.184289,0.411193 0.260971,0.899989 0.416811,1.093797 -0.173923,0.453366 -1.094969,1.774629 -1.668331,2.433144 0.07211,1.225875 2.13276,0.0303 2.17575,0.927565 0.127133,1.666723 -1.667708,3.084094 -3.249283,2.461285 -2.164156,-0.550693 -4.452965,-1.111718 -6.661991,-0.442483 -2.525564,0.78677 -5.187319,0.663443 -7.779755,1.007171 -1.658783,0.213582 -3.035436,1.353372 -4.558458,1.860939 -0.338376,0.118856 -0.620256,0.243593 -1.102887,0.32259 -0.924124,0.187062 -2.020093,0.388313 -3.065504,0.233507 z m 0.913187,-3.341776 c 0.271107,-1.119787 -2.106753,-0.542575 -2.133938,-1.938546 -0.395959,-1.567125 1.164591,-2.935287 2.647195,-2.979692 1.47873,-0.175336 3.004966,-0.118207 4.410446,-0.68266 0.566193,-0.02286 2.528006,0.210147 1.433591,-0.710478 -1.516137,-0.424814 0.785824,-2.03161 1.541539,-2.322718 1.950432,-0.90536 4.293761,0.395676 6.128906,-0.915927 0.736717,-0.422754 2.224667,-2.251618 0.940374,-2.628575 -0.616804,0.929777 -1.156658,2.145364 -2.399672,2.370405 -1.526372,0.248196 -3.107404,-0.34482 -4.613436,0.195677 -1.237113,0.256169 -2.1575,1.182241 -2.744995,2.257821 -0.600012,1.229552 -2.026373,1.402567 -3.240508,1.391057 -1.759687,-2.44e-4 -3.866314,0.419642 -4.698803,2.178634 -0.843805,1.498293 0.07915,3.620938 1.816926,3.884588 0.299067,0.03982 0.645414,0.07081 0.912375,-0.09959 z m 5.061636,-1.603439 c 1.320985,-0.533559 2.660448,-1.19923 4.134521,-1.052028 1.538789,0.101286 3.043346,0.701277 4.605038,0.39167 0.873028,0.234214 1.923775,-1.263776 0.507611,-0.983894 -1.523764,0.506289 -3.089391,0.01658 -4.5981,-0.264848 -1.760346,-0.314566 -3.434532,0.430627 -5.004523,1.117211 -0.618935,0.45647 -2.83103,-0.910872 -2.151659,0.478961 0.733772,0.463248 1.680387,0.463477 2.507112,0.312928 z m 14.503022,-3.357647 c 0.90706,-0.15689 2.88737,-1.381427 1.90175,-2.258475 -0.968395,1.105609 -2.477328,1.900993 -3.919582,1.148127 -1.755851,-0.450065 0.410008,-1.649006 0.467266,-2.651306 0.405717,-0.810905 -0.152989,-1.589641 -0.620873,-0.547532 -0.493177,1.475334 -1.897914,2.846854 -3.554411,2.667737 -1.408585,0.07702 -3.120119,-0.381729 -4.206328,0.793038 -0.287225,1.515356 1.626829,-0.39282 2.433958,0.03761 1.375305,0.136755 2.781383,-0.07549 4.144884,0.04222 1.032834,0.531713 2.167566,1.012454 3.353336,0.76859 z"
         id="path19"
         inkscape:label="central"
         sodipodi:nodetypes="cccccccccsscccccccccczcssssssccccccccccscccccccccccccssccccccccsccccccccss" /><path
         id="path54"
         style="display:inline;opacity:1;fill:#028554;fill-opacity:1;stroke-width:0.246689"
         d="m 72.718834,49.143916 c -0.186466,-0.08288 -1.0207,-0.41317 -2.704436,-0.878828 -0.456178,0.07925 -0.941334,0.02446 -1.415568,-0.17538 -2.071624,-0.472056 -4.460241,-1.116738 -6.557483,-0.448087 -2.569184,0.752423 -5.128245,0.692293 -7.75768,1.044572 -1.244465,0.176933 -2.518878,1.080501 -3.22526,1.429059 -0.689701,0.340326 -0.869068,0.594841 -0.324742,1.226697 0.307994,0.603335 0.522102,0.790904 0.764156,1.330288 1.218091,1.61766 2.893991,3.037667 4.184551,4.602765 1.013045,1.161409 1.642948,2.452751 2.419668,3.799099 0.593475,1.06221 2.324801,1.305734 3.041207,0.301134 0.520285,-1.057846 -0.636463,-2.512653 -0.483741,-3.520612 0.09523,-0.628506 1.832797,-0.648237 2.934245,-0.778129 1.926343,-0.227171 3.878546,-0.452984 5.47822,-1.348596 0.727303,-0.400502 1.249158,-0.86922 1.836191,-1.449295 0.711491,-0.855802 1.238135,-1.817096 1.432914,-2.992062 0.11063,-0.545147 0.181944,-1.969172 0.377758,-2.142625 z"
         sodipodi:nodetypes="cccccscccccsscccc" /><path
         id="path55"
         style="display:inline;opacity:1;fill:#059463;fill-opacity:1;stroke-width:0.246689"
         d="m 71.401556,42.389372 c -0.02876,0.0069 -0.05473,0.02258 -0.07709,0.04866 l -0.392678,0.457723 c -0.891347,1.03991 -2.001843,1.991257 -0.355096,2.893772 0.789169,0.06168 1.856974,-0.764927 1.302823,0.581549 -0.178264,1.051438 -0.994655,1.74084 -1.907637,1.89946 0.271025,0.0885 1.964437,0.565774 2.745372,0.873278 0.161092,-0.158234 0.414897,-0.273852 0.808153,-0.306818 1.206927,-0.332776 2.135397,-1.401295 2.600829,-2.558912 0.521401,-0.788359 0.639638,-1.623808 0.888464,-2.438459 0.178341,-0.583883 0.719471,-1.541251 -0.287161,-1.082635 -1.470958,0.540498 -3.085238,0.57613 -4.561329,0.05444 -0.223447,-0.09777 -0.563328,-0.470327 -0.764638,-0.422068 z"
         sodipodi:nodetypes="sccccccccsccss" /><path
         style="display:inline;opacity:1;fill:#059963;fill-opacity:1;stroke:none;stroke-width:0.0178849;stroke-linecap:square;stroke-linejoin:bevel;stroke-miterlimit:3.6;stroke-dasharray:none;stroke-opacity:1;paint-order:stroke fill markers"
         d="m 61.068092,56.408702 c 0.649201,0.03681 1.321985,0.0055 1.946479,-0.1201 0.692156,-0.139212 1.366312,-0.4703 2.02162,-0.763699 0.484329,-0.247512 1.00953,-0.491192 1.364513,-0.848801 -0.832889,0.102637 -1.668645,0.212217 -2.510095,0.198967 -2.340998,-0.07547 -4.746862,-0.502924 -6.767153,-1.748252 -0.166862,-0.06504 -0.666068,-0.316834 -0.84377,-0.515386 -0.177245,-0.19804 0.170384,-0.271174 0.383742,-0.173129 1.008219,0.457116 1.99425,0.980182 3.066494,1.2798 0.48016,0.113248 1.016473,0.342729 1.544512,0.417666 0.647723,0.09192 1.306899,0.14967 1.965595,0.12666 1.714416,0.06845 3.48001,-0.258137 4.95265,-1.169513 0.667371,-0.396021 -0.339098,-0.10544 -0.609143,-0.09574 -2.026887,0.177145 -4.080981,0.06126 -6.08294,-0.295306 -0.645451,-0.09726 -1.030937,-0.207053 -1.600187,-0.328053 -0.239233,-0.05085 -1.521128,-0.413434 -0.736562,-0.456634 0.206701,-0.01265 0.379312,-0.01819 0.521669,-0.01013 0.240863,0.01364 1.460781,0.215749 1.870428,0.267231 1.058295,0.133 1.873924,0.309735 2.94268,0.269635 1.562764,0.03877 3.197845,0.02177 4.628397,-0.670675 0.420941,-0.203753 0.979053,-0.432842 1.239223,-0.762763 -0.330328,-0.116412 -1.093311,0.243346 -1.592824,0.321418 -0.351672,0.05497 -1.605859,0.0074 -1.490877,-0.312374 0.126593,-0.352022 1.565841,-0.288426 2.199207,-0.503497 0.75612,-0.170331 -0.154302,-0.285315 -0.463701,-0.310065 -3.150669,-0.268165 -6.317417,-0.242157 -9.473237,-0.426179 -2.085766,-0.13258 -4.179804,-0.253925 -6.267816,-0.09209 -0.903537,0.04795 -0.130545,1.11375 0.04418,1.425291 0.04225,0.07534 0.441405,0.623763 0.638045,0.894812 0.252513,0.348065 0.418759,0.564751 0.761135,1.00049 0.370053,0.470963 0.877161,0.882881 1.322374,1.239602 1.069741,0.857115 2.928423,1.867122 3.572082,1.981486 0.643659,0.114364 0.963725,0.151568 1.45328,0.179328 z"
         id="path42"
         inkscape:label="blue"
         sodipodi:nodetypes="ssccccsccsccccscsscscssccccsssszs" /></g><g
       id="g56"
       inkscape:label="Fronatal lobe"
       style="display:inline;opacity:1"
       transform="matrix(1.07254,0,0,1.07254,-15.976377,-7.8904824)"><path
         style="display:inline;fill:#fdc11b;fill-opacity:1"
         d="m 53.506676,54.986641 c -0.07397,-0.09432 -0.07186,-0.09642 0.02245,-0.02245 0.05724,0.04489 0.104066,0.09172 0.104066,0.104065 0,0.04894 -0.04883,0.01744 -0.126517,-0.08161 z m -7.17293,-3.623815 c 0.05724,-0.01496 0.150895,-0.01496 0.208131,0 0.05724,0.01496 0.01041,0.02719 -0.104066,0.02719 -0.114472,0 -0.161301,-0.01224 -0.104065,-0.02719 z m -11.744528,-6.06392 c 0.04088,-0.0165 0.107782,-0.0165 0.148665,0 0.04088,0.0165 0.0074,0.02999 -0.07433,0.02999 -0.08176,0 -0.115215,-0.0135 -0.07433,-0.02999 z m 1.129853,0 c 0.04088,-0.0165 0.107782,-0.0165 0.148665,0 0.04088,0.0165 0.0074,0.02999 -0.07433,0.02999 -0.08177,0 -0.115216,-0.0135 -0.07433,-0.02999 z m 2.933394,-1.964084 c -0.0068,-0.102334 0.09845,-0.151492 0.149049,-0.06962 0.02565,0.0415 0.01735,0.05375 -0.02054,0.03033 -0.03497,-0.02161 -0.07713,-0.0057 -0.09369,0.03541 -0.02156,0.05347 -0.03145,0.05457 -0.03481,0.0039 z m -8.424779,-0.152174 -0.113282,-0.133799 0.133799,0.113282 c 0.125737,0.106457 0.160869,0.154315 0.113282,0.154315 -0.01128,0 -0.07149,-0.06021 -0.133799,-0.133798 z m 8.63494,-0.233879 c 0.01717,-0.02779 0.05614,-0.03513 0.08658,-0.01631 0.0778,0.04809 0.06904,0.06684 -0.03123,0.06684 -0.04762,0 -0.07253,-0.02274 -0.05536,-0.05053 z M 29.72029,42.617721 c -0.07397,-0.09432 -0.07186,-0.09642 0.02245,-0.02245 0.05724,0.04489 0.104065,0.09172 0.104065,0.104066 0,0.04894 -0.04883,0.01744 -0.126517,-0.08161 z m 6.608307,-0.647232 c -1.205056,-0.233684 -1.969052,-0.579454 -2.614918,-1.183462 -0.425861,-0.39826 -0.585636,-0.487861 -0.798642,-0.447877 -0.155038,0.0291 -1.481965,-0.139949 -1.862591,-0.237297 -1.609734,-0.4117 -2.494366,-1.781914 -2.12855,-3.29693 0.04738,-0.196238 0.08711,-0.403008 0.08827,-0.45949 0.003,-0.145053 -0.263292,-0.304739 -0.435916,-0.261413 -0.163336,0.04099 -0.229736,0.182262 -0.389198,0.82803 -0.144327,0.584479 -0.212901,0.68668 -0.607324,0.905131 -0.300317,0.166331 -0.359329,0.177061 -0.973816,0.177061 -0.767227,0 -1.005813,-0.08378 -1.493395,-0.524413 -0.167241,-0.151138 -0.3254,-0.255532 -0.351463,-0.231987 -0.02606,0.02354 -0.02814,0.0094 -0.0046,-0.03152 0.02353,-0.04088 0.01528,-0.07433 -0.01833,-0.07433 -0.03361,0 -0.04703,-0.03669 -0.02982,-0.08153 0.01721,-0.04484 -0.008,-0.1208 -0.05598,-0.168795 -0.156684,-0.156684 -0.337054,-0.880262 -0.373699,-1.499149 -0.04207,-0.710533 0.07974,-1.52639 0.31076,-2.08141 0.125226,-0.300849 0.153606,-0.476145 0.169238,-1.045323 0.04104,-1.494151 0.516999,-2.672952 1.488653,-3.68689 l 0.427396,-0.445995 0.122316,-0.594659 c 0.367279,-1.785577 1.373319,-3.13727 2.915564,-3.917285 0.300501,-0.151984 0.323439,-0.181723 0.636999,-0.825889 0.643802,-1.322602 1.614515,-2.262903 3.024897,-2.930131 0.616146,-0.291488 1.252645,-0.477807 1.828762,-0.535323 l 0.390983,-0.03903 0.633004,-0.618605 c 1.165055,-1.138551 2.364197,-1.756607 4.085633,-2.105794 0.49072,-0.09954 0.79718,-0.123395 1.431491,-0.11142 0.788703,0.01489 0.811744,0.01171 1.010921,-0.139603 0.322355,-0.244886 1.130282,-0.625152 1.639808,-0.771807 0.404482,-0.116421 0.606097,-0.134513 1.507581,-0.13528 1.168452,-9.96e-4 1.493577,0.05923 2.250973,0.416948 0.884265,0.417642 1.540061,1.30543 1.86572,2.52573 0.112633,0.422053 0.134911,0.657557 0.135007,1.427183 1.01e-4,0.804584 -0.0174,0.974624 -0.137683,1.337985 -0.187471,0.56631 -0.499018,1.072734 -1.115777,1.813711 -0.85443,1.026517 -1.119103,1.507813 -1.369477,2.490329 -0.166529,0.653494 -0.189352,1.600611 -0.05606,2.326415 0.04505,0.245297 0.126308,0.686831 0.180577,0.981188 0.127245,0.690185 0.131002,2.069395 0.0084,3.09223 -0.268267,2.238508 -0.150136,3.127084 0.554086,4.167812 l 0.285183,0.421456 -0.661227,0.193464 c -1.676419,0.490491 -3.591739,1.423634 -5.121058,2.494976 -0.261586,0.18325 -0.513321,0.324522 -0.559412,0.313938 -0.103648,-0.0238 -1.079842,-0.674429 -1.403082,-0.935146 -0.130825,-0.10552 -0.55898,-0.404769 -0.951456,-0.664997 -0.963347,-0.63874 -1.290208,-0.944186 -1.528621,-1.428473 -0.1905,-0.38696 -0.193965,-0.408413 -0.17838,-1.104399 0.01732,-0.77335 -0.03693,-0.931328 -0.31981,-0.931328 -0.275709,0 -0.316102,0.107865 -0.411976,1.100121 -0.0696,0.72035 0.149847,1.334477 0.674246,1.886868 0.219199,0.2309 0.296965,0.349522 0.241222,0.367954 -0.231008,0.07639 -1.875895,0.334766 -2.343895,0.368178 -0.662017,0.04726 -1.277321,-0.0464 -1.840392,-0.280154 -0.616657,-0.255998 -0.803917,-0.218418 -0.803917,0.161331 0,0.256318 0.249329,0.460882 0.75035,0.615632 1.069858,0.330445 2.081586,0.308816 3.975258,-0.08499 0.824365,-0.171432 1.047694,-0.156451 1.518318,0.101849 0.458742,0.251778 1.962377,1.289164 1.962377,1.35388 0,0.03147 -0.301625,0.353614 -0.615194,0.665586 -0.338357,0.336634 -0.720345,0.739361 -0.848863,0.894949 -0.225818,0.273383 -0.250601,0.286064 -0.737657,0.37744 -0.491664,0.09224 -2.64495,0.168145 -2.971825,0.104757 z m 8.372808,-5.623454 c 0.126767,-0.126767 0.07649,-0.322897 -0.158831,-0.619598 -0.313552,-0.395336 -0.58502,-0.95287 -0.698689,-1.43495 -0.123103,-0.522095 -0.07803,-1.18001 0.129319,-1.887657 0.457906,-1.562747 0.429086,-2.217844 -0.163525,-3.717011 -0.230608,-0.583385 -0.248538,-0.671386 -0.273008,-1.33993 -0.03086,-0.843175 0.05812,-1.280889 0.375893,-1.849123 0.240269,-0.429642 0.255596,-0.575339 0.07391,-0.702596 -0.205866,-0.144194 -0.343978,-0.111494 -0.580868,0.137529 -0.265987,0.279611 -0.486043,0.845814 -0.653631,1.681797 -0.06695,0.333984 -0.133023,0.618533 -0.146821,0.632331 -0.0138,0.0138 -0.220792,0.048 -0.459988,0.07601 -0.549416,0.06433 -0.730103,0.119016 -1.172813,0.354978 -0.555022,0.295824 -0.837935,0.563774 -0.837935,0.793618 0,0.40393 0.303209,0.444014 0.760359,0.100518 0.408996,-0.307314 0.880926,-0.479788 1.312815,-0.479788 0.421006,0 0.4964,0.06776 0.831828,0.747584 0.577352,1.170141 0.644879,1.876021 0.288919,3.02016 -0.286601,0.921205 -0.36367,1.386424 -0.3184,1.921974 0.05311,0.62829 0.137284,0.931609 0.426086,1.535397 0.322214,0.673639 0.708634,1.10012 0.996782,1.10012 0.108481,0 0.22935,-0.03211 0.268597,-0.07136 z M 26.85323,35.973964 c 0.09188,-0.06435 0.135759,-0.178889 0.165178,-0.431129 0.101332,-0.868853 0.411736,-1.308506 1.184418,-1.677602 0.639317,-0.305389 0.848917,-0.331801 1.651862,-0.208153 0.509922,0.07852 0.867813,0.09455 1.520896,0.06808 0.979523,-0.03969 1.352987,0.02659 1.771193,0.314321 0.324326,0.223143 0.716623,0.669394 0.978932,1.113571 0.370147,0.62678 0.601716,0.765089 0.802066,0.479048 0.139088,-0.198575 0.114243,-0.331381 -0.151714,-0.810975 -0.312161,-0.562913 -1.015177,-1.302085 -1.465309,-1.54067 -0.54765,-0.290272 -0.780487,-0.329784 -1.977295,-0.335537 -1.27156,-0.0061 -1.559096,-0.07499 -2.008056,-0.481015 -0.219162,-0.198204 -0.267989,-0.282482 -0.292843,-0.505461 -0.01704,-0.152846 0.0109,-0.424279 0.06515,-0.632976 0.128481,-0.494276 0.120433,-0.596388 -0.05612,-0.712073 -0.118514,-0.07765 -0.181403,-0.0852 -0.291604,-0.03499 -0.193639,0.08823 -0.393404,0.643578 -0.432901,1.203475 -0.02845,0.403257 -0.01564,0.479313 0.128675,0.764104 0.08815,0.17395 0.151778,0.324077 0.141403,0.333617 -0.01038,0.0095 -0.27912,0.138546 -0.59721,0.286681 -0.734761,0.342179 -1.155447,0.724906 -1.448447,1.317751 -0.338198,0.684297 -0.34069,1.344908 -0.0057,1.50687 0.173041,0.08366 0.173846,0.08362 0.317417,-0.01694 z m 13.596729,-2.09774 c 0.112273,-0.243096 0.130455,-0.38606 0.130455,-1.025788 0,-0.687645 -0.01206,-0.767872 -0.16095,-1.071037 -0.22877,-0.465804 -0.722295,-0.929054 -1.46033,-1.370749 -0.809125,-0.48424 -1.254647,-0.914765 -1.442774,-1.394207 -0.11728,-0.29889 -0.143491,-0.490611 -0.162531,-1.188881 -0.01851,-0.678919 -0.04048,-0.846238 -0.119071,-0.906855 -0.140443,-0.108329 -0.354314,-0.09098 -0.484598,0.0393 -0.251049,0.251049 -0.21563,1.433342 0.07277,2.429058 l 0.135649,0.468337 -0.521644,0.24839 c -1.028792,0.489878 -2.070715,1.766737 -2.070715,2.537627 0,0.23741 0.120041,0.327951 0.434804,0.327951 0.24199,0 0.311674,-0.07118 0.419084,-0.428075 0.195209,-0.648633 0.919945,-1.407906 1.584216,-1.659714 0.489377,-0.18551 1.147041,-0.139412 1.658742,0.116266 1.085519,0.542394 1.486222,1.10711 1.413383,1.991898 -0.01927,0.234091 -0.05232,0.547883 -0.07345,0.697316 -0.04571,0.323274 0.06093,0.471629 0.339013,0.471629 0.153794,0 0.194914,-0.03772 0.307949,-0.282464 z m -7.120681,-4.789985 0.159009,-0.136774 -0.132937,-0.575291 c -0.104154,-0.450725 -0.127824,-0.702605 -0.109321,-1.163281 0.02141,-0.533128 0.04407,-0.629375 0.242813,-1.031506 0.470122,-0.951226 1.257948,-1.555195 2.617369,-2.006544 0.484963,-0.161015 0.591225,-0.297792 0.413461,-0.53219 -0.100086,-0.131973 -0.160534,-0.154638 -0.391015,-0.146613 -0.571877,0.01991 -1.582738,0.4531 -2.268436,0.972104 -0.219992,0.166511 -0.406813,0.294747 -0.415158,0.284968 -0.0083,-0.0098 -0.06098,-0.107809 -0.116978,-0.217845 -0.243077,-0.477687 -0.931296,-1.018987 -1.295561,-1.018987 -0.07558,0 -0.198348,0.04268 -0.272827,0.09485 -0.206385,0.144558 -0.161338,0.494553 0.07922,0.615505 0.451624,0.227074 0.627388,0.384034 0.780513,0.69701 0.184935,0.377995 0.175563,0.687627 -0.04311,1.424237 -0.119239,0.401658 -0.145641,0.443751 -0.256755,0.409346 -0.300307,-0.09299 -0.974537,-0.09627 -1.402367,-0.0068 -0.92225,0.192808 -2.200241,1.008735 -2.200241,1.404733 0,0.429623 0.389108,0.472694 0.834648,0.09239 0.569991,-0.486535 1.461445,-0.865954 2.034581,-0.865954 0.216027,0 0.539997,0.133521 0.776814,0.320156 0.06632,0.05227 0.163174,0.310266 0.251644,0.670332 0.109424,0.445347 0.180438,0.617363 0.296893,0.719158 0.190476,0.166498 0.220973,0.16628 0.417744,-0.003 z m 6.519237,-3.148721 c 0.05149,-0.04088 0.168665,-0.314355 0.260381,-0.607716 0.212238,-0.678854 0.410433,-0.880782 1.370953,-1.396772 1.26817,-0.681261 1.755772,-1.100656 2.105435,-1.810923 0.465291,-0.945139 0.302908,-1.914906 -0.449724,-2.685799 -0.547781,-0.561071 -1.475347,-0.896908 -2.135277,-0.773104 -0.267636,0.05021 -0.386398,0.251253 -0.282772,0.478687 0.07042,0.154565 0.08242,0.158653 0.773629,0.263604 0.512392,0.0778 0.704832,0.168024 1.063463,0.498599 0.378248,0.348656 0.493648,0.605979 0.493648,1.100749 0,0.853908 -0.576085,1.559362 -1.714408,2.099403 -0.348973,0.16556 -0.680086,0.324999 -0.735806,0.354308 -0.131653,0.06925 -0.145207,0.0397 -0.192627,-0.420002 -0.07327,-0.710267 -0.250783,-1.111807 -0.685921,-1.551553 -0.50677,-0.512135 -0.875,-0.66257 -1.636646,-0.668627 -0.396752,-0.0032 -0.650561,0.03084 -0.981188,0.131409 -0.719125,0.218747 -1.511487,0.711044 -1.579297,0.981222 -0.04631,0.184505 0.06303,0.436009 0.2098,0.482592 0.125224,0.03974 0.160342,0.02231 0.747853,-0.371301 0.486332,-0.325824 0.885009,-0.450592 1.454167,-0.45509 0.607248,-0.0048 1.013248,0.148279 1.33353,0.502793 0.409895,0.453705 0.447346,1.226403 0.123387,2.545757 -0.114472,0.466198 -0.208131,0.904603 -0.208131,0.974233 0,0.298357 0.43356,0.511721 0.665551,0.327531 z m 6.490603,-4.263073 c 0.316163,-0.120205 0.561942,-1.274612 0.453562,-2.130346 -0.07043,-0.55613 -0.135994,-0.771907 -0.369875,-1.217395 l -0.179078,-0.3411 0.207905,-0.25372 c 0.275642,-0.336384 0.461411,-0.646376 0.461685,-0.77041 1.22e-4,-0.05541 -0.06345,-0.174776 -0.141278,-0.265253 l -0.1415,-0.164504 -0.221892,0.176054 c -0.601499,0.477242 -0.540773,0.455551 -1.152865,0.411804 -0.437459,-0.03127 -0.568622,-0.02252 -0.608615,0.0406 -0.119799,0.189054 -0.04224,0.330432 0.401961,0.732747 0.527785,0.478012 0.752383,0.804744 0.915089,1.33121 0.149637,0.484182 0.148401,1.032887 -0.0038,1.667605 -0.14911,0.622002 -0.1241,0.71658 0.22075,0.834799 0.006,0.0021 0.07711,-0.02137 0.157908,-0.05209 z m -21.2223,16.464506 c -0.02156,-0.03488 -0.02644,-0.07618 -0.01086,-0.09176 0.01559,-0.01559 0.04419,0.01295 0.06355,0.06342 0.04021,0.104786 0.0059,0.123217 -0.0527,0.02834 z"
         id="path21"
         sodipodi:nodetypes="sssssssssssssssssssssscssscsssscsssssssscsssscsssssscsscsssscssssscsssssssssssssscscsssssssssssssssssssssccssssssssssssssssssssssscssscssssscssssssscsssccssssssssscsssssssssssccsssssssccscsssscssssssscssssssssssssssccsssssssscsscssscsscsscccccsccc" /><path
         style="display:inline;fill:#f5a200;fill-opacity:1;stroke:#f4a301;stroke-width:0.197351;stroke-dasharray:none;stroke-opacity:1"
         d="M 34.366221,45.271815 C 32.674838,45.078237 31.269452,44.341763 30.149827,43.06227 l -0.440306,-0.503175 -0.535974,-0.160441 c -1.130614,-0.338444 -2.008166,-0.867152 -2.753067,-1.658671 -0.731377,-0.777149 -1.159743,-1.601754 -1.395467,-2.686275 -0.07109,-0.327063 -0.169868,-0.674531 -0.219511,-0.772152 -0.07692,-0.151255 -0.03843,-0.130053 0.260415,0.143438 0.531361,0.486287 0.755797,0.569248 1.539995,0.569248 0.614487,0 0.673499,-0.01073 0.973816,-0.177061 0.394423,-0.218451 0.462997,-0.320652 0.607324,-0.905131 0.159462,-0.645768 0.225862,-0.787035 0.389198,-0.82803 0.172624,-0.04333 0.438908,0.11636 0.435916,0.261413 -0.0012,0.05648 -0.04089,0.263252 -0.08827,0.45949 -0.365816,1.515016 0.518816,2.88523 2.12855,3.29693 0.380626,0.09735 1.707553,0.266401 1.862591,0.237297 0.213006,-0.03998 0.372781,0.04962 0.798642,0.447877 0.552079,0.516299 1.04476,0.77776 1.933178,1.025921 0.568472,0.158791 0.644475,0.165264 1.87106,0.159371 0.888587,-0.0043 1.423609,-0.03429 1.754246,-0.09843 0.26165,-0.05076 0.481505,-0.08681 0.488568,-0.08013 0.02843,0.02691 -0.766107,1.136151 -0.81381,1.136151 -0.02826,0 -0.07368,0.02436 -0.100931,0.05413 -0.02879,0.03145 -0.01841,0.03621 0.02478,0.01136 0.04088,-0.02353 0.07392,-0.02113 0.07342,0.0053 -0.0017,0.09233 -0.114272,0.226509 -0.190185,0.226793 -0.04208,1.57e-4 -0.07806,0.05368 -0.07996,0.118932 -0.0019,0.06526 -0.142007,0.399623 -0.311342,0.743038 -0.169335,0.343416 -0.308267,0.656901 -0.308737,0.696633 -0.0013,0.112313 -0.161505,0.173641 -0.803645,0.307696 -1.073153,0.224036 -1.988277,0.28051 -2.884099,0.177983 z m -9.196704,-7.161206 c -0.01937,-0.05047 -0.04797,-0.07901 -0.06355,-0.06342 -0.01559,0.01559 -0.0107,0.05688 0.01086,0.09176 0.05864,0.09488 0.09291,0.07644 0.0527,-0.02834 z m 16.332619,1.82363 c 0,-0.06965 -1.479987,-1.095604 -1.962377,-1.360361 -0.470624,-0.2583 -0.693953,-0.273281 -1.518318,-0.101849 -1.893672,0.393803 -2.9054,0.415432 -3.975258,0.08499 -0.501021,-0.15475 -0.75035,-0.359314 -0.75035,-0.615632 0,-0.379749 0.18726,-0.417329 0.803917,-0.161331 0.563071,0.233752 1.178375,0.327416 1.840392,0.280154 0.468,-0.03341 2.112887,-0.29179 2.343895,-0.368178 0.05574,-0.01843 -0.02202,-0.137054 -0.241222,-0.367954 -0.524399,-0.552391 -0.743848,-1.166518 -0.674246,-1.886868 0.09587,-0.992256 0.136267,-1.100121 0.411976,-1.100121 0.282879,0 0.337127,0.157978 0.31981,0.931328 -0.01559,0.695986 -0.01212,0.717439 0.17838,1.104399 0.238413,0.484287 0.565274,0.789733 1.528621,1.428473 0.392476,0.260228 0.820631,0.559477 0.951456,0.664997 0.287361,0.231778 1.276481,0.896504 1.38803,0.932809 0.04796,0.01561 -0.06469,0.139469 -0.282464,0.310559 -0.199233,0.156526 -0.362242,0.257591 -0.362242,0.224588 z M 24.650882,36.981028 c -0.05738,-0.149539 -0.04045,-0.188124 0.02965,-0.06757 0.03471,0.05969 0.05058,0.121053 0.03527,0.136364 -0.01531,0.01531 -0.04452,-0.01565 -0.06492,-0.06879 z m 19.312912,-0.845091 c -0.293974,-0.305535 -0.73798,-1.159091 -0.850361,-1.63473 -0.199799,-0.845634 -0.148904,-1.47092 0.214907,-2.640298 0.35596,-1.144139 0.288433,-1.850019 -0.288919,-3.02016 -0.335428,-0.679825 -0.410822,-0.747584 -0.831828,-0.747584 -0.431889,0 -0.903819,0.172474 -1.312815,0.479788 -0.45715,0.343496 -0.760359,0.303412 -0.760359,-0.100518 0,-0.229844 0.282913,-0.497794 0.837935,-0.793618 0.44271,-0.235962 0.623397,-0.290651 1.172813,-0.354978 0.239196,-0.02801 0.44619,-0.06221 0.459988,-0.07601 0.0138,-0.0138 0.07987,-0.298347 0.146821,-0.632331 0.167588,-0.835983 0.387644,-1.402186 0.653631,-1.681797 0.23689,-0.249023 0.375002,-0.281723 0.580868,-0.137529 0.181685,0.127257 0.166358,0.272954 -0.07391,0.702596 -0.317775,0.568234 -0.406754,1.005948 -0.375893,1.849123 0.02447,0.668544 0.0424,0.756545 0.273008,1.33993 0.592611,1.499167 0.621431,2.154264 0.163525,3.717011 -0.20735,0.707647 -0.252422,1.365562 -0.129319,1.887657 0.113669,0.48208 0.385137,1.039614 0.698689,1.43495 0.337177,0.425123 0.294946,0.690957 -0.109766,0.690957 -0.157514,0 -0.251975,-0.05689 -0.469014,-0.282463 z M 26.535813,35.990909 c -0.335006,-0.161962 -0.332514,-0.822573 0.0057,-1.50687 0.293,-0.592845 0.713686,-0.975572 1.448447,-1.317751 0.31809,-0.148135 0.586834,-0.277141 0.59721,-0.286681 0.01037,-0.0095 -0.05326,-0.159667 -0.141403,-0.333617 -0.144315,-0.284791 -0.157122,-0.360847 -0.128675,-0.764104 0.0395,-0.559897 0.239262,-1.115247 0.432901,-1.203475 0.110201,-0.05021 0.17309,-0.04267 0.291604,0.03499 0.176558,0.115685 0.184606,0.217797 0.05612,0.712073 -0.05425,0.208697 -0.08218,0.48013 -0.06515,0.632976 0.02485,0.222979 0.07368,0.307257 0.292843,0.505461 0.44896,0.406026 0.736496,0.474903 2.008056,0.481015 1.196808,0.0058 1.429645,0.04527 1.977295,0.335537 0.450132,0.238585 1.153148,0.977757 1.465309,1.54067 0.265957,0.479594 0.290802,0.6124 0.151714,0.810975 -0.20035,0.286041 -0.431919,0.147732 -0.802066,-0.479048 -0.262309,-0.444177 -0.654606,-0.890428 -0.978932,-1.113571 -0.418206,-0.287733 -0.79167,-0.354009 -1.771193,-0.314321 -0.653083,0.02646 -1.010974,0.01044 -1.520896,-0.06808 -0.802945,-0.123648 -1.012545,-0.09724 -1.651862,0.208153 -0.772682,0.369096 -1.083086,0.808749 -1.184418,1.677602 -0.02942,0.25224 -0.0733,0.366775 -0.165178,0.431129 -0.143571,0.100561 -0.144376,0.100604 -0.317417,0.01694 z M 39.86455,34.058721 C 39.78664,33.980811 39.77306,33.8988 39.803,33.687059 c 0.02113,-0.149433 0.05418,-0.463225 0.07345,-0.697316 0.07284,-0.884788 -0.327864,-1.449504 -1.413383,-1.991898 -0.511701,-0.255678 -1.169365,-0.301776 -1.658742,-0.116266 -0.664271,0.251808 -1.389007,1.011081 -1.584216,1.659714 -0.10741,0.356897 -0.177094,0.428075 -0.419084,0.428075 -0.314763,0 -0.434804,-0.09054 -0.434804,-0.327951 0,-0.77089 1.041923,-2.047749 2.070715,-2.537627 L 36.95858,29.8554 36.822931,29.387063 c -0.288401,-0.995716 -0.32382,-2.178009 -0.07277,-2.429058 0.130284,-0.130283 0.344155,-0.147627 0.484598,-0.0393 0.07859,0.06062 0.100557,0.227936 0.119071,0.906855 0.01904,0.69827 0.04525,0.889991 0.162531,1.188881 0.188127,0.479442 0.633649,0.909967 1.442774,1.394207 0.738035,0.441695 1.23156,0.904945 1.46033,1.370749 0.148894,0.303165 0.16095,0.383392 0.16095,1.071037 0,0.639728 -0.01818,0.782692 -0.130455,1.025788 -0.113035,0.244747 -0.154155,0.282464 -0.307949,0.282464 -0.09762,0 -0.222479,-0.04498 -0.27746,-0.09997 z m -6.953009,-4.969507 c -0.116455,-0.101795 -0.187469,-0.273811 -0.296893,-0.719158 -0.08847,-0.360066 -0.185324,-0.618065 -0.251644,-0.670332 -0.236817,-0.186635 -0.560787,-0.320156 -0.776814,-0.320156 -0.573136,0 -1.46459,0.379419 -2.034581,0.865954 -0.44554,0.380306 -0.834648,0.337235 -0.834648,-0.09239 0,-0.395998 1.277991,-1.211925 2.200241,-1.404733 0.42783,-0.08944 1.10206,-0.08616 1.402367,0.0068 0.111114,0.0344 0.137516,-0.0077 0.256755,-0.409346 0.218676,-0.73661 0.228048,-1.046242 0.04311,-1.424237 -0.153125,-0.312976 -0.328889,-0.469936 -0.780513,-0.69701 -0.240558,-0.120952 -0.285605,-0.470947 -0.07922,-0.615505 0.07448,-0.05217 0.197251,-0.09485 0.272827,-0.09485 0.364265,0 1.052484,0.5413 1.295561,1.018987 0.05599,0.110036 0.108633,0.208066 0.116978,0.217845 0.0083,0.0098 0.195166,-0.118457 0.415158,-0.284968 0.685698,-0.519004 1.696559,-0.952193 2.268436,-0.972104 0.230481,-0.008 0.290929,0.01464 0.391015,0.146613 0.177764,0.234398 0.0715,0.371175 -0.413461,0.53219 -1.359421,0.451349 -2.147247,1.055318 -2.617369,2.006544 -0.198744,0.402131 -0.2214,0.498378 -0.242813,1.031506 -0.0185,0.460676 0.0052,0.712556 0.109321,1.163281 l 0.132937,0.575291 -0.159009,0.136774 c -0.196771,0.169255 -0.227268,0.169473 -0.417744,0.003 z m 6.40072,-3.214994 c -0.169653,-0.180589 -0.16571,-0.24254 0.07883,-1.238466 0.323959,-1.319354 0.286508,-2.092052 -0.123387,-2.545757 -0.320282,-0.354514 -0.726282,-0.507592 -1.33353,-0.502793 -0.569158,0.0045 -0.967835,0.129266 -1.454167,0.45509 -0.587511,0.39361 -0.622629,0.411046 -0.747853,0.371301 -0.14677,-0.04658 -0.256108,-0.298087 -0.2098,-0.482592 0.06781,-0.270178 0.860172,-0.762475 1.579297,-0.981222 0.330627,-0.100572 0.584436,-0.134564 0.981188,-0.131409 0.761646,0.0061 1.129876,0.156492 1.636646,0.668627 0.435138,0.439746 0.612654,0.841286 0.685921,1.551553 0.04742,0.4597 0.06097,0.489254 0.192627,0.420002 0.05572,-0.02931 0.386833,-0.188748 0.735806,-0.354308 1.138323,-0.540041 1.714408,-1.245495 1.714408,-2.099403 0,-0.49477 -0.1154,-0.752093 -0.493648,-1.100749 -0.358631,-0.330575 -0.551071,-0.420799 -1.063463,-0.498599 -0.691207,-0.104951 -0.703205,-0.109039 -0.773629,-0.263604 -0.103626,-0.227434 0.01514,-0.428478 0.282772,-0.478687 0.65993,-0.123804 1.587496,0.212033 2.135277,0.773104 0.752632,0.770893 0.915015,1.74066 0.449724,2.685799 -0.349663,0.710267 -0.837265,1.129662 -2.105435,1.810923 -0.96052,0.51599 -1.158715,0.717918 -1.370953,1.396772 -0.09172,0.293361 -0.208888,0.566833 -0.260381,0.607716 -0.147073,0.116769 -0.39453,0.08756 -0.536254,-0.0633 z m 6.729384,-4.203299 c -0.195748,-0.07894 -0.211897,-0.233929 -0.08119,-0.779184 0.152158,-0.634718 0.153394,-1.183423 0.0038,-1.667605 -0.162706,-0.526466 -0.387304,-0.853198 -0.915089,-1.33121 -0.444204,-0.402315 -0.52176,-0.543693 -0.401961,-0.732747 0.03999,-0.06311 0.171156,-0.07186 0.608615,-0.0406 0.612092,0.04375 0.551366,0.06544 1.152865,-0.411804 l 0.221892,-0.176054 0.1415,0.164504 c 0.07782,0.09048 0.1414,0.209841 0.141278,0.265253 -2.74e-4,0.124034 -0.186043,0.434026 -0.461685,0.77041 l -0.207905,0.25372 0.179078,0.3411 c 0.233881,0.445488 0.29944,0.661265 0.369875,1.217395 0.10838,0.855734 -0.137399,2.010141 -0.453562,2.130346 -0.0808,0.03072 -0.151861,0.05416 -0.157908,0.05209 -0.006,-0.0021 -0.06885,-0.0271 -0.139565,-0.05561 z"
         id="path20"
         sodipodi:nodetypes="cscsssssssssccsssscscssscssscsccccsccssssssssssssssssssssssssssssssssssssssssssssssscsccsscssscsssssscsssssssssssssscsssssssssssscssssssssssssscscssssccscccssssssscsssssssssssssscccscsscsccsscsssccc" /></g><g
       id="g17"
       transform="matrix(1.07254,0,0,1.07254,-10.153341,-17.841636)"
       style="display:inline;opacity:1"
       inkscape:label="text ulmy ai"><path
         style="display:inline;fill:#4285f4;fill-opacity:1;fill-rule:evenodd;stroke:none;stroke-width:0.270879;stroke-dasharray:none;stroke-opacity:1"
         d="m 69.053888,69.250541 2.0466,-2.5e-5 v 9.575457 h -2.0466 z"
         id="path11-0" /><path
         style="display:inline;fill:#4285f4;fill-opacity:1;fill-rule:evenodd;stroke:none;stroke-width:0.09453;stroke-dasharray:none;stroke-opacity:1"
         d="m 62.059819,69.250516 2.377674,2.5e-5 3.410633,9.575432 h -2.193632 l -0.712195,-2.198359 -3.475865,-8.4e-5 -0.703152,2.198443 h -2.177459 z m 2.401455,5.819736 -1.267363,-3.952873 -1.287311,3.955888 2.554674,-0.0037 z"
         id="path8-7-6" /><ellipse
         style="display:inline;opacity:1;fill:#f4b400;fill-opacity:1;stroke:none;stroke-width:4.33916;stroke-linecap:square;stroke-linejoin:bevel;stroke-miterlimit:3.6;stroke-dasharray:none;stroke-opacity:1;paint-order:stroke fill markers"
         id="path17"
         cx="59.797657"
         cy="70.285919"
         rx="1.1800978"
         ry="1.0361835"
         transform="matrix(0.93236616,0,0,0.93236616,1.5307713,12.225481)" /><path
         style="fill:#0f9d58;fill-opacity:1;fill-rule:evenodd;stroke:none;stroke-width:0.998007;stroke-miterlimit:4.5;stroke-dasharray:none;stroke-opacity:1;paint-order:stroke fill markers"
         d="m 50.892202,81.850069 v -1.540382 c 1.243846,0.529565 2.289783,-0.159465 2.199564,-1.50442 -0.10709,-0.742986 -0.389455,-1.496594 -1.116014,-3.291569 -0.726571,-1.794986 -1.338396,-3.309115 -1.35962,-3.364758 l -0.03859,-0.101181 1.075362,0.01206 1.075361,0.01206 0.66163,2.118681 c 0.573172,1.835422 0.899001,2.561945 0.899001,2.561945 0,0 0.607856,-1.666852 0.842947,-2.412055 l 0.725486,-2.290881 h 0.949929 c 0.522462,0 0.949929,0.01086 0.949929,0.02388 0,0.08731 -2.897676,7.662694 -3.056163,7.989716 -0.457955,0.944924 -1.115328,1.580795 -1.890452,1.828633 -0.548546,0.175384 -1.367687,0.06694 -1.918368,-0.04148 z"
         id="path15" /><path
         style="fill:#0f9d58;fill-opacity:1;fill-rule:evenodd;stroke:none;stroke-width:0.499003;stroke-miterlimit:4.5;stroke-dasharray:none;stroke-opacity:1;paint-order:stroke fill markers"
         d="m 39.728787,75.495042 v -3.59001 h 0.802874 0.802945 v 0.86638 c 0.03847,-0.04631 0.334222,-0.386187 0.458907,-0.473403 0.355664,-0.248754 0.649112,-0.377239 1.156523,-0.390829 0.613295,-0.0164 1.281859,0.257546 1.769203,0.957477 0.06115,0.08792 0.08864,0.176229 0.09527,0.176554 0.348259,-0.427479 0.656299,-0.70847 0.962615,-0.873603 0.844044,-0.455024 2.554444,-0.391988 3.333523,0.339203 0.357715,0.335729 0.723316,1.064773 0.726306,1.781286 l 0.01917,4.59692 h -1.607965 l -0.02304,-4.104318 c -0.104678,-0.856141 -0.651222,-1.314047 -1.259271,-1.319992 -0.619735,-0.0061 -1.309501,0.639694 -1.309501,1.319992 v 4.104318 h -1.77715 v -4.104318 c 0,-0.868152 -0.60636,-1.328373 -1.204605,-1.319992 -0.583688,0.0085 -1.131885,0.707867 -1.138482,1.319992 l -0.02315,2.146719 v 1.957599 h -0.981308 l -0.802873,-1.2e-5 z"
         id="path16" /><path
         d="m 36.83871,78.885005 c -0.634822,0 -0.822687,-0.298827 -0.967271,-0.51572 -0.214239,-0.32139 -0.171295,-1.142172 -0.171295,-5.169924 v -3.94882 h 1.753248 l 9.16e-4,3.949303 c 7.72e-4,3.461586 -0.09081,3.78862 0.172261,3.971553 0.203013,0.141183 1.187372,0.105763 1.187372,0.105763 l -0.01761,1.607869 z"
         style="display:inline;fill:#0f9d58;fill-opacity:1;stroke-width:0.169877"
         id="path1" /><path
         style="display:inline;fill:#0f9d58;fill-opacity:1;fill-rule:evenodd;stroke:none;stroke-width:0.998007;stroke-miterlimit:4.5;stroke-dasharray:none;stroke-opacity:1;paint-order:stroke fill markers"
         d="M 29.097591,78.901455 C 27.564092,78.650312 26.662557,77.772439 26.29792,76.175256 26.21098,75.794448 26.2054,75.608198 26.189251,72.551179 l -0.01703,-3.300638 h 2.0125 v 3.084841 c 0,3.292908 0.0096,3.437261 0.259958,3.969961 0.330435,0.702633 1.04028,1.032417 1.970117,0.915294 0.783638,-0.09865 1.265723,-0.582024 1.450526,-1.454192 0.0527,-0.249008 0.06488,-0.866705 0.06537,-3.371392 l 6.39e-4,-3.144512 c 0.921335,1.2e-5 1.200227,8.4e-5 2.013206,0 l -0.01773,3.233742 c -0.01676,3.071636 -0.02039,3.167631 -0.117582,3.601779 -0.336803,1.504433 -1.132983,2.37443 -2.497547,2.729093 -0.530155,0.137794 -1.636487,0.18092 -2.214145,0.08635 z"
         id="path14" /></g><g
       id="g42"
       style="display:inline"
       inkscape:label="Parietal lobe"><g
         id="g41"
         style="display:inline;fill:#147cfa;fill-opacity:1;stroke:#147cfa;stroke-width:1.02658;stroke-dasharray:none;stroke-opacity:1"><path
           id="rect30"
           style="display:inline;fill:#147cfa;fill-opacity:1;stroke:#147cfa;stroke-width:1.02658;stroke-linecap:square;stroke-linejoin:bevel;stroke-miterlimit:3.6;stroke-dasharray:none;stroke-opacity:1;paint-order:stroke fill markers"
           d="m 41.757737,19.665864 c -0.103227,-0.0043 -0.222252,0.0057 -0.356568,0.03049 -1.204833,0.222725 -2.202874,1.350479 -2.509407,2.836002 -0.180443,0.874468 -0.130001,2.050505 0.0987,2.303219 0.09935,0.109786 0.339396,0.137013 0.470772,0.05374 0.05246,-0.03325 0.10362,-0.331904 0.15968,-0.93431 0.04533,-0.487119 0.132709,-1.088025 0.194304,-1.335319 0.285305,-1.145408 0.910053,-1.861312 1.843815,-2.112532 0.456827,-0.122905 0.574642,-0.209534 0.574642,-0.423747 0,-0.261768 -0.166261,-0.404496 -0.47594,-0.417545 z" /><path
           id="path41"
           style="display:inline;fill:#147cfa;fill-opacity:1;stroke:#147cfa;stroke-width:1.02658;stroke-linecap:square;stroke-linejoin:bevel;stroke-miterlimit:3.6;stroke-dasharray:none;stroke-opacity:1;paint-order:stroke fill markers"
           d="m 50.408888,18.274734 c -0.126325,0.0071 -0.246746,0.07257 -0.321427,0.186552 -0.08549,0.130472 -0.07925,0.186356 0.09302,0.848527 0.215035,0.826547 0.279351,1.642266 0.1726,2.184879 -0.03846,0.195512 -0.221037,0.824078 -0.40566,1.396814 -0.412388,1.279315 -0.479268,1.616615 -0.480591,2.422592 -7.94e-4,0.615616 0.05255,0.854454 0.215491,0.963248 0.109505,0.07312 0.478301,0.04785 0.54932,-0.03772 0.03739,-0.04506 0.09179,-0.395937 0.120923,-0.779797 0.06418,-0.845555 0.155961,-1.398826 0.254248,-1.53324 0.06896,-0.09431 0.0917,-0.09253 0.394808,0.03049 0.894651,0.363112 2.27011,1.48647 2.847888,2.32544 0.643054,0.933749 0.728203,1.207481 0.906405,2.924886 0.04161,0.401042 0.211539,0.596573 0.484208,0.556555 0.162676,-0.02103 0.182927,-0.007 0.277502,-0.19327 0.08241,-0.227531 0.143247,-0.798537 0.05064,-1.440739 -0.0544,-0.312761 -0.109998,-0.586827 -0.235128,-0.873331 -0.129984,-0.413999 -0.48692,-1.130944 -0.820105,-1.647445 -0.267033,-0.413959 -0.282818,-0.552888 -0.06305,-0.555005 0.07223,-7.94e-4 0.239602,-0.05044 0.372071,-0.110587 0.202356,-0.0925 0.397067,-0.188671 0.573608,-0.328146 0.57432,-0.381383 1.171505,-1.149468 1.171505,-1.506885 0,-0.18935 -0.199332,-0.35605 -0.426331,-0.35605 -0.17213,0 -0.232225,0.04454 -0.483175,0.359668 -0.302006,0.379234 -0.715268,0.75813 -0.829406,0.756543 l 0.0026,0.0062 -0.239779,0.127124 c -0.19604,0.103777 -0.337423,0.127591 -0.775147,0.129708 -0.609785,0.003 -0.487445,0.0506 -1.870686,-0.728638 -0.753814,-0.424658 -0.959925,-0.56583 -0.936377,-0.640788 0.300159,-0.95587 0.394807,-2.109416 0.237194,-2.887162 -0.14779,-0.729294 -0.431419,-1.44694 -0.611848,-1.547709 -0.0714,-0.03987 -0.149517,-0.05696 -0.22531,-0.05271 z" /><path
           id="path40"
           style="display:inline;fill:#147cfa;fill-opacity:1;stroke:#147cfa;stroke-width:1.02658;stroke-linecap:square;stroke-linejoin:bevel;stroke-miterlimit:3.6;stroke-dasharray:none;stroke-opacity:1;paint-order:stroke fill markers"
           d="m 50.408888,18.274734 c 0.07579,-0.0042 0.153914,0.01284 0.22531,0.05271 0.180429,0.100769 0.464058,0.818415 0.611848,1.547709 0.157613,0.777746 0.06296,1.931292 -0.237194,2.887162 -0.02355,0.07496 0.182563,0.21613 0.936377,0.640788 1.383241,0.779243 1.260901,0.731601 1.870686,0.728638 0.437724,-0.0021 0.579107,-0.02593 0.775147,-0.129708 l 0.239779,-0.127124 -0.0026,-0.0062 c 0.114138,0.0016 0.5274,-0.377309 0.829406,-0.756543 0.25095,-0.315128 0.311045,-0.359668 0.483175,-0.359668 0.226999,0 0.426331,0.1667 0.426331,0.35605 0,0.357417 -0.597185,1.125502 -1.171505,1.506885 -0.176541,0.139475 -0.371252,0.235645 -0.573608,0.328146 -0.132469,0.06014 -0.29984,0.109793 -0.372071,0.110587 -0.219773,0.0021 -0.203988,0.141046 0.06305,0.555005 0.333185,0.516501 0.690121,1.233446 0.820105,1.647445 0.12513,0.286504 0.180727,0.56057 0.235128,0.873331 0.0926,0.642202 0.03177,1.213208 -0.05064,1.440739 -0.09457,0.186288 -0.114826,0.172236 -0.277502,0.19327 -0.272669,0.04002 -0.442595,-0.155513 -0.484208,-0.556555 -0.178202,-1.717405 -0.263351,-1.991137 -0.906405,-2.924886 -0.577778,-0.83897 -1.953237,-1.962328 -2.847888,-2.32544 -0.303109,-0.123024 -0.325844,-0.124804 -0.394808,-0.03049 -0.09829,0.134414 -0.190065,0.687685 -0.254248,1.53324 -0.02914,0.38386 -0.08353,0.734739 -0.120923,0.779797 -0.07102,0.08557 -0.439815,0.110844 -0.54932,0.03772 -0.162936,-0.108794 -0.216285,-0.347632 -0.215491,-0.963248 0.0013,-0.805977 0.0682,-1.143277 0.480591,-2.422592 0.184623,-0.572736 0.367195,-1.201302 0.40566,-1.396814 0.106751,-0.542613 0.04244,-1.358332 -0.1726,-2.184879 -0.172272,-0.662171 -0.178507,-0.718055 -0.09302,-0.848527 0.07468,-0.113978 0.195102,-0.17947 0.321427,-0.186552 z" /><path
           id="path39"
           style="display:inline;fill:#147cfa;fill-opacity:1;stroke:#147cfa;stroke-width:1.02658;stroke-linecap:square;stroke-linejoin:bevel;stroke-miterlimit:3.6;stroke-dasharray:none;stroke-opacity:1;paint-order:stroke fill markers"
           d="m 40.13303,9.4189439 c -0.215569,0 -0.432532,0.1863299 -0.432532,0.3803386 0,0.2057255 0.190875,0.3450735 0.881083,0.6929805 0.981311,0.494641 1.700508,1.47069 1.924431,2.500106 l -0.0062,-10e-4 c 0.03082,0.0656 0.02171,0.193619 0.02171,0.471289 0,0.891644 -0.350717,1.723895 -1.141533,2.708878 -0.588804,0.733374 -0.659938,0.83968 -0.754993,1.129647 -0.08998,0.274499 -0.04301,0.472288 0.141594,0.593245 0.247981,0.162483 0.41681,0.03189 1.130163,-0.874882 1.315162,-1.671757 1.635889,-2.437878 1.595252,-3.81062 l -0.02067,-0.703316 c 1.019559,-0.356937 1.968744,-0.250477 2.360063,-0.05891 0.41806,0.204657 0.948521,0.757584 1.184424,1.238167 0.195035,0.39729 0.196887,0.409795 0.196887,1.180807 0,0.762778 -0.0038,0.787634 -0.186552,1.159102 -0.129622,0.263428 -0.384944,0.594464 -0.834574,1.081071 -1.360908,1.472826 -1.597836,1.814915 -1.597836,2.30787 0,0.310565 0.07234,0.403076 0.315227,0.403076 0.2477,0 0.388006,-0.115293 0.765844,-0.629936 0.181012,-0.246552 0.676407,-0.820512 1.100708,-1.274858 1.01354,-1.085307 1.181945,-1.346774 1.379244,-2.141988 0.07371,-0.295733 0.08809,-0.547501 0.06563,-0.855761 0,-0.248207 -0.0114,-0.476246 0.04289,-0.450619 0.273725,0.0021 1.3208,0.172406 1.730127,0.309542 1.045874,0.3504 1.559609,0.723479 2.382283,1.520321 1.094341,1.059975 1.664796,2.149082 1.862419,3.556888 0.04705,0.335182 0.111927,0.658562 0.144177,0.71882 0.08224,0.153671 0.33154,0.20448 0.511597,0.103869 0.243657,-0.136144 0.322523,-0.466102 0.258899,-1.081071 l -0.05374,-0.523482 0.201538,0.03617 c 0.416248,0.07477 1.159634,0.358552 1.565796,0.59738 0.575802,0.33858 1.380065,1.158362 1.70894,1.742529 0.138634,0.24625 0.33113,0.673654 0.427881,0.949813 0.153863,0.439177 0.178981,0.599041 0.201021,1.276925 0.0497,1.529016 -0.167655,2.012366 -1.330668,2.955375 -0.238869,0.193683 -0.269751,0.244614 -0.269751,0.445967 0,0.678932 0.651756,0.547569 1.540991,-0.311092 l 0.419096,-0.404626 0.350883,0.342098 c 0.470831,0.459089 0.985772,1.15555 1.225765,1.65778 0.310237,0.649224 0.399459,1.063784 0.399459,1.850533 0,0.809503 -0.07338,1.130053 -0.482658,2.101164 -0.153453,0.364103 -0.296658,0.733322 -0.318327,0.820621 -0.0847,0.34135 0.334552,0.619287 0.636137,0.42168 0.22094,-0.144764 0.853557,-1.595708 1.068668,-2.451013 l 0.06511,-0.259416 0.275435,0.299207 c 0.360371,0.391784 0.460845,0.696448 0.500228,1.514119 0.04068,0.844743 -0.03749,1.459824 -0.300757,2.36058 -0.115673,0.395763 -0.212832,0.802387 -0.216007,0.90382 -0.0136,0.434941 0.494077,0.575226 0.74259,0.205156 0.139687,-0.208016 0.432759,-1.08463 0.58291,-1.74253 0.140801,-0.616942 0.13758,-2.186445 -0.0057,-2.70216 -0.203936,-0.734108 -0.57146,-1.273142 -1.170471,-1.717208 -0.387231,-0.287065 -0.39757,-0.301239 -0.470773,-0.656807 -0.100761,-0.489419 -0.414208,-1.28794 -0.692981,-1.765267 -0.319074,-0.546331 -0.665021,-0.993734 -1.244885,-1.609721 l -0.499194,-0.5302 0.07131,-0.478007 c 0.10064,-0.676466 0.04307,-1.948812 -0.115238,-2.542998 -0.15784,-0.592413 -0.603526,-1.508861 -0.965833,-1.985925 -0.364553,-0.480016 -1.116724,-1.183451 -1.528072,-1.42937 -0.525216,-0.313993 -1.176781,-0.56971 -1.937866,-0.76016 -0.394314,-0.09867 -0.757129,-0.200863 -0.806669,-0.227377 -0.04954,-0.02651 -0.121055,-0.163303 -0.158647,-0.303857 -0.211926,-0.792367 -1.761328,-2.44621 -2.972945,-3.17345 -0.704347,-0.422765 -1.479847,-0.678002 -2.730582,-0.898136 -0.370309,-0.06518 -0.726264,-0.130072 -0.791167,-0.144177 -0.0649,-0.01411 -0.158928,-0.110572 -0.208772,-0.214457 -0.165849,-0.345655 -0.630154,-0.906922 -0.959632,-1.160136 -0.395515,-0.303967 -0.792965,-0.509853 -1.249019,-0.646989 -0.60542,-0.182051 -1.955513,-0.04836 -2.571936,0.192236 -0.06639,0.02591 -0.178725,-0.210695 -0.38809,-0.497644 -0.330454,-0.452911 -0.879163,-0.91018 -1.370976,-1.1952758 -0.47612,-0.2760004 -1.02404,-0.5146973 -1.192175,-0.5146973 z" /><path
           id="path38"
           style="display:inline;fill:#147cfa;fill-opacity:1;stroke:#147cfa;stroke-width:0.153458;stroke-linecap:square;stroke-linejoin:bevel;stroke-miterlimit:3.6;stroke-dasharray:none;stroke-opacity:1;paint-order:stroke fill markers"
           d="m 43.438771,28.137181 1.545642,-0.7059 0.03772,-0.626835 c 0.149498,-2.483451 0.175939,-2.601596 0.688847,-3.100586 0.196223,-0.190898 0.548482,-0.452533 0.782898,-0.581877 0.479187,-0.264402 0.66518,-0.46415 0.606164,-0.650089 -0.155945,-0.491337 -0.735465,-0.36903 -1.870686,0.394291 l -0.52555,0.35295 -0.184485,-0.155546 c -0.323821,-0.273125 -1.046758,-0.58636 -1.453658,-0.629936 -0.473075,-0.05066 -0.659391,0.04664 -0.659391,0.344682 0,0.248305 0.09551,0.342773 0.473873,0.466638 0.499464,0.163511 0.812292,0.346159 1.068152,0.623735 l 0.242362,0.263033 -0.0026,0.533817 c -0.0016,0.293574 -0.02421,0.962353 -0.05064,1.486214 -0.04611,0.913892 -0.05595,0.967472 -0.235128,1.323951 -0.102711,0.204343 -0.238975,0.445473 -0.302824,0.535884 -0.0099,0.01406 -0.116675,0.08972 -0.160714,0.125574 z" /></g><path
         style="display:inline;opacity:1;fill:#3591fa;fill-opacity:1;stroke:none;stroke-width:3.56817;stroke-linecap:square;stroke-linejoin:bevel;stroke-miterlimit:3.6;paint-order:stroke fill markers"
         d="m 153.74609,41.152344 c -1.5581,0.0159 -1.78346,-0.02539 -3.47461,0.294922 -1.5435,0.292347 -5.27937,0.751152 -5.68359,0.890625 -0.39035,0.134686 -2.27212,0.49096 -3.32031,1.470703 -0.29932,0.16751 -0.18758,0.43621 0.77344,1.873047 0.61686,0.922289 1.12109,1.807297 1.12109,1.966796 0,0.1595 0.0763,0.321439 0.16992,0.361329 0.21437,0.09138 1.67411,3.440966 1.69141,3.880859 0.007,0.179496 0.13818,0.619523 0.29101,0.978516 0.15283,0.358992 0.3768,1.542646 0.51172,2.628906 l 0.25781,2.066406 0.0176,0.002 0.0664,2.048828 c 0.0735,2.204905 -0.2547,5.649075 -0.57813,6.0625 -0.10561,0.135005 -0.24655,0.608155 -0.31445,1.050782 -0.18016,1.174096 -1.61706,4.344369 -2.33008,5.140625 -0.1795,0.200451 -0.59658,0.755718 -0.92578,1.234375 -0.32919,0.478657 -1.32368,1.74612 -2.21094,2.816406 -4.91752,5.931927 -6.02511,10.591445 -4.34375,18.289062 0.31365,1.435971 0.62556,3.148488 0.69336,3.806641 0.24725,2.400208 0.0932,10.264758 -0.21093,10.769538 -0.0721,0.11967 -0.24547,1.68746 -0.38672,3.48242 -0.26454,3.36165 -0.0774,7.43003 0.38086,8.28906 0.12132,0.22743 0.37977,0.87073 0.57617,1.42969 0.39927,1.13638 1.86097,2.6316 3.06054,3.13281 0.51689,0.21602 1.61607,0.30864 3.63086,0.30664 2.87372,-0.004 2.90606,-0.009 5.71875,-1.00195 1.55564,-0.54936 3.14625,-1.10997 3.53516,-1.2461 0.3889,-0.13613 0.70703,-0.32171 0.70703,-0.41211 0,-0.0904 0.099,-0.16406 0.2207,-0.16406 0.45791,0 9.7441,-6.29007 10.16407,-6.88476 0.24132,-0.34171 0.75633,-1.25307 1.14453,-2.02539 0.67722,-1.34732 0.71441,-1.54983 0.88867,-5.00391 0.0999,-1.97995 0.18541,-4.50762 0.19141,-5.61719 l 0.01,-2.01758 -0.91601,-0.99414 c -0.96703,-1.049106 -2.14937,-1.739427 -4.03711,-2.357421 -1.43002,-0.468153 -1.79102,-0.825198 -1.79102,-1.763672 0,-1.126458 0.70419,-1.494212 2.49219,-1.302734 1.53789,0.164695 4.27025,1.348575 5.49414,2.380859 l 0.69727,0.587891 1.98632,-1.333985 c 4.2906,-2.884994 6.48092,-3.347255 7.07032,-1.490234 0.22305,0.702762 -0.47992,1.457717 -2.29102,2.457031 -0.88598,0.488859 -2.21735,1.477715 -2.95898,2.199219 -1.93855,1.885946 -2.03849,2.332486 -2.60352,11.718756 l -0.14258,2.36914 0.6211,-0.1543 c 0.34171,-0.0847 0.98362,-0.19139 1.35546,-0.32227 2.22142,-0.78188 5.00611,-1.56146 7.64258,-1.88867 2.50952,-0.3294 5.51381,-0.32465 7.94141,0.0117 3.832,1.15639 5.61389,1.31891 7.59375,3.61328 0.77877,1.12161 0.34445,1.2942 -0.34375,2.31055 -0.28601,0.30442 -0.26101,0.49221 -0.19531,0.50391 0.31065,0.0552 3.25727,2.76778 3.46875,3.26367 0.0765,0.1795 1.3775,2.18536 2.89062,4.45898 2.77828,4.17468 3.85578,5.48957 5.46094,6.65235 0.48437,0.35087 0.90755,0.63671 0.93945,0.63671 0.0874,0.11782 0.23726,0.21732 0.48047,0.35547 0.22501,0.12782 1.84371,1.03561 3.63867,1.95313 6.19091,3.16457 8.44325,4.6402 11.17188,7.32422 1.97662,1.94432 3.05831,3.44293 4.91015,6.79492 1.90094,3.44085 2.95855,4.46006 5.41407,5.22461 0.98096,0.30543 2.41944,0.63815 3.19726,0.73828 2.25442,0.29025 7.5642,0.25011 9.35547,-0.0703 0.89748,-0.16054 2.65955,-0.61029 3.91602,-1 1.25648,-0.38971 2.5461,-0.61296 2.88867,-0.69336 0.39552,-0.0928 0.71327,-0.15665 0.94336,-0.50781 0.44183,-0.67432 1.0379,-3.00971 1.63086,-6.38868 0.43011,-2.45098 0.45133,-2.93334 0.23047,-5.33398 -0.37387,-4.06374 -1.54063,-8.94038 -2.62305,-10.96289 -0.14836,-0.27719 -0.21595,-1.90241 -0.18555,-4.42969 0.0741,-6.16093 -0.79551,-10.30806 -3.20703,-15.3125 -1.52785,-3.17061 -4.41012,-6.7278 -6.80273,-8.39648 -1.14826,-0.80083 -1.40492,-2.609584 -1.44922,-3.021491 -0.12928,-1.202817 -0.76121,-3.459432 -1.62305,-5.796875 -2.93261,-7.953665 -8.98887,-14.838544 -17.02539,-19.355468 -0.74462,-0.418512 -1.56175,-1.456927 -1.62695,-1.734375 -0.10613,-0.451658 -0.27826,-0.687131 -0.39844,-0.904297 -0.0743,-0.134342 -0.69804,-1.177643 -1.50586,-2.417969 -2.26289,-3.47441 -5.97227,-6.990912 -9.14062,-8.664062 -1.7946,-0.947696 -6.18716,-2.518025 -7.48047,-2.923829 -1.2725,-0.399275 -2.11792,-0.663582 -3.85352,-0.748046 -1.14214,-0.05558 -1.69165,-0.06849 -2.47461,-1.048829 -2.04252,-2.557432 -6.09472,-5.817622 -8.52148,-6.857421 -0.65815,-0.282001 -1.78397,-0.788343 -2.50196,-1.125 -2.86382,-1.342815 -9.36659,-2.033578 -12.36523,-1.314454 -1.04124,0.249705 -1.06307,0.24224 -2.60938,-0.716796 -3.76443,-2.33474 -7.2944,-3.356895 -11.03125,-3.761719 -2.41739,-0.261883 -2.1711,-0.377638 -3.76953,-0.361328 z m -3.29297,4.292968 c 0.63547,0 2.70635,0.902162 4.50586,1.945313 1.85882,1.077528 3.93268,2.80579 5.18164,4.517578 0.7913,1.084531 1.21586,1.978799 1.4668,1.880859 2.32979,-0.909335 7.4325,-1.414626 9.7207,-0.726562 1.72367,0.51831 3.22585,1.29646 4.72071,2.445312 1.24527,0.957032 3.00012,3.078356 3.62695,4.384766 0.18839,0.392638 0.54376,0.757237 0.78906,0.810547 0.2453,0.05331 1.59065,0.298589 2.99024,0.544922 4.72719,0.832003 7.65821,1.796678 10.32031,3.394531 4.57934,2.748622 10.43535,8.999367 11.23633,11.994141 0.14208,0.531228 0.41237,1.048228 0.59961,1.148437 0.18724,0.100209 1.55851,0.486445 3.04883,0.859375 2.87654,0.719811 5.33914,1.6863 7.32421,2.873047 1.5547,0.929456 4.39756,3.588108 5.7754,5.402344 1.36935,1.803077 3.05383,5.266817 3.65039,7.505859 0.59834,2.24574 0.81591,7.054609 0.43554,9.611329 l -0.26953,1.80664 1.88672,2.00391 c 2.19161,2.32814 3.49913,4.01911 4.70508,6.08398 1.05363,1.80407 2.23831,4.82211 2.61914,6.67188 0.27667,1.34388 0.31575,1.39745 1.7793,2.48242 2.26398,1.67836 3.65304,3.71565 4.42382,6.49023 0.54147,1.94916 0.55366,7.88114 0.0215,10.21289 -0.5675,2.48655 -1.67518,5.79974 -2.20313,6.58594 -0.93926,1.39869 -2.85804,0.86848 -2.80664,-0.77539 0.012,-0.38337 0.37922,-1.92022 0.81641,-3.41602 0.99504,-3.40443 1.29048,-5.72914 1.13672,-8.92187 -0.14885,-3.09041 -0.5286,-4.2419 -1.89063,-5.72266 l -1.04101,-1.13086 -0.2461,0.98047 c -0.81302,3.23265 -3.20401,8.71653 -4.03906,9.26367 -1.13985,0.74686 -2.72443,-0.30361 -2.4043,-1.59375 0.0819,-0.32995 0.62315,-1.72542 1.20313,-3.10156 1.54687,-3.67034 1.82422,-4.88187 1.82422,-7.94141 0,-2.97354 -0.33722,-4.54038 -1.50977,-6.99414 -0.90706,-1.89819 -2.85329,-4.53048 -4.63281,-6.26562 l -1.32617,-1.29297 -1.58399,1.5293 c -3.36089,3.24533 -5.82422,3.74182 -5.82422,1.17578 0,-0.76102 0.11673,-0.95352 1.01954,-1.68555 4.39564,-3.56413 5.21712,-5.39096 5.02929,-11.16992 -0.0833,-2.562081 -0.17823,-3.16629 -0.75976,-4.826172 -0.36567,-1.043751 -1.09322,-2.659135 -1.61719,-3.589844 -1.24299,-2.207877 -4.28272,-5.306265 -6.45898,-6.585937 -1.5351,-0.902658 -4.34475,-1.975221 -5.91797,-2.257813 l -0.76172,-0.136718 0.20312,1.978515 c 0.24047,2.32429 -0.0576,3.571377 -0.97851,4.085938 -0.68053,0.380262 -1.62277,0.188226 -1.9336,-0.392578 -0.12189,-0.227745 -0.36709,-1.449969 -0.54492,-2.716797 -0.74692,-5.320842 -2.90297,-9.437154 -7.03906,-13.44336 -3.10932,-3.011684 -5.051,-4.421747 -9.00391,-5.746093 -1.54706,-0.518311 -5.50451,-1.161822 -6.53906,-1.169922 -0.20518,-0.09686 -0.16211,0.76502 -0.16211,1.703125 0.0849,1.165077 0.0305,2.116643 -0.2481,3.234375 -0.7457,3.005533 -1.38219,3.993754 -5.21289,8.095703 -1.60366,1.717211 -3.47601,3.88651 -4.16015,4.818359 -1.42805,1.945107 -1.95834,2.38086 -2.89453,2.38086 -0.91801,0 -1.19141,-0.349647 -1.19141,-1.523438 0,-1.863135 0.89547,-3.156071 6.03906,-8.722656 1.69939,-1.839144 2.66439,-3.090304 3.1543,-4.085938 0.69086,-1.403976 0.70508,-1.497919 0.70508,-4.380859 0,-2.91406 -0.007,-2.961325 -0.74414,-4.462891 -0.8916,-1.816377 -2.8965,-3.906179 -4.47657,-4.679687 -1.479,-0.724028 -5.06647,-1.126397 -8.91992,0.222656 l 0.0781,2.658203 c 0.15359,5.188314 -1.05861,8.083889 -6.0293,14.402344 -2.69614,3.427174 -3.33423,3.92075 -4.27148,3.306641 -0.69772,-0.457163 -0.87526,-1.204713 -0.53516,-2.242188 0.35926,-1.09594 0.62812,-1.497726 2.85352,-4.269531 2.98891,-3.722771 4.31445,-6.868285 4.31445,-10.238281 0,-1.049461 0.0345,-1.533304 -0.082,-1.78125 l 0.0234,0.0039 c -0.84632,-3.890705 -3.56454,-7.579712 -7.27343,-9.449219 -2.60866,-1.314924 -3.33008,-1.841595 -3.33008,-2.619141 0,-0.733261 0.82001,-1.4375 1.63476,-1.4375 z m 38.8379,33.470704 c 0.28646,-0.01606 0.58172,0.04851 0.85156,0.199218 0.68194,0.380861 1.75392,3.093221 2.3125,5.84961 0.5957,2.939511 0.23797,7.299372 -0.89649,10.912109 -0.089,0.283304 0.69001,0.816869 3.53907,2.421875 5.228,2.945172 4.76561,2.765102 7.07031,2.753902 1.65439,-0.008 2.18875,-0.098 2.92969,-0.49023 l 0.90625,-0.48047 -0.01,-0.0234 c 0.43139,0.006 1.99333,-1.426045 3.13477,-2.859371 0.94847,-1.191033 1.1756,-1.359375 1.82617,-1.359375 0.85795,0 1.61133,0.630046 1.61133,1.345703 0,1.350864 -2.25708,4.253863 -4.42774,5.695313 -0.66724,0.52715 -1.40321,0.89043 -2.16802,1.24004 -0.50067,0.22731 -1.13325,0.41497 -1.40625,0.41797 -0.83064,0.008 -0.77098,0.53309 0.23828,2.09766 1.25928,1.95213 2.60833,4.66184 3.09961,6.22656 0.47293,1.08285 0.68305,2.11874 0.88866,3.30083 0.35,2.42722 0.12006,4.58535 -0.19141,5.44531 -0.35745,0.70408 -0.43399,0.65099 -1.04883,0.73049 -1.03056,0.15125 -1.6728,-0.58776 -1.83008,-2.10351 -0.67352,-6.49098 -0.99534,-7.52556 -3.42578,-11.05469 -2.18373,-3.17091 -7.38231,-7.41667 -10.76367,-8.78906 -1.14561,-0.464974 -1.23154,-0.471706 -1.49219,-0.11524 -0.37148,0.50802 -0.71836,2.59913 -0.96094,5.79493 -0.11012,1.45081 -0.3157,2.77696 -0.45703,2.94726 -0.26842,0.32342 -1.66229,0.41894 -2.07617,0.14258 -0.61582,-0.41119 -0.81745,-1.31389 -0.81445,-3.64063 0.005,-3.04621 0.25777,-4.32104 1.8164,-9.156246 0.69779,-2.164674 1.38783,-4.540357 1.53321,-5.279297 0.40347,-2.050824 0.16038,-5.133853 -0.65235,-8.257812 -0.65111,-2.502693 -0.67467,-2.71391 -0.35156,-3.207031 0.28226,-0.430783 0.7374,-0.678311 1.21485,-0.705078 z m -32.69727,5.257812 c 1.17044,0.04932 1.79883,0.588764 1.79883,1.578125 0,0.809624 -0.44529,1.137041 -2.17188,1.601563 -3.52918,0.949494 -5.89043,3.655274 -6.96875,7.984375 -0.2328,0.934654 -0.56304,3.205798 -0.73437,5.046879 -0.21188,2.27681 -0.40523,3.40557 -0.60352,3.53125 -0.49654,0.31472 -1.40378,0.21181 -1.77929,-0.20313 -0.86439,-0.95514 -1.05504,-5.400004 -0.37305,-8.705078 1.15855,-5.614576 4.93067,-9.876953 9.48437,-10.71875 0.50765,-0.09384 0.95751,-0.131673 1.34766,-0.115234 z"
         id="path24"
         sodipodi:nodetypes="csscssccsccccscssssssssscccsssssscccssscccssssccscsccccsscsssssssssssssssscssssssssssssssccsssssssssssssssscccssssssssscccssssscccsssssscccssssscccssssssscsccsssssccsssscssssscccssscccsccccssssssscssssccssssssssss"
         transform="matrix(0.26458333,0,0,0.26458333,0.32564103,-2.6051282)" /></g><g
       id="g11"
       transform="matrix(0.40204773,0,0,0.41766278,-122.06621,-60.400978)"
       style="display:inline"
       inkscape:label="chat AI"><path
         id="path13"
         style="display:inline;fill:#4285f4;fill-opacity:1;stroke:#ffffff;stroke-width:10.589;stroke-linecap:square;stroke-linejoin:bevel;stroke-miterlimit:3.6;stroke-dasharray:none;stroke-opacity:1;paint-order:stroke fill markers"
         d="m 400.38036,180.73262 a 36.043045,32.161572 0 0 0 -36.04325,32.16176 36.043045,32.161572 0 0 0 6.53462,18.35871 l -0.15809,0.70648 -2.93441,13.09658 12.55639,-3.94939 1.78019,-0.56049 a 36.043045,32.161572 0 0 0 18.26455,4.50988 36.043045,32.161572 0 0 0 36.04324,-32.16177 36.043045,32.161572 0 0 0 -36.04324,-32.16176 z" /><path
         style="display:inline;fill:#ffffff;fill-opacity:1;fill-rule:evenodd;stroke:none;stroke-width:0.916584;stroke-dasharray:none;stroke-opacity:1"
         d="m 412.11454,195.33611 h 6.7257 v 33.36182 h -6.7257 z"
         id="path11-1" /><path
         style="display:inline;fill:#ffffff;fill-opacity:1;fill-rule:evenodd;stroke:none;stroke-width:0.319865;stroke-dasharray:none;stroke-opacity:1"
         d="m 389.12995,195.33611 h 7.81448 l 11.20768,33.36182 h -7.20886 l -2.34045,-7.6593 -11.42261,-3.2e-4 -2.31076,7.65962 h -7.15571 z m 7.89206,20.27652 -4.16489,-13.77217 -4.23045,13.78266 8.39534,-0.0106 z"
         id="path8-7-4" /></g></g></svg>
